<?xml version="1.0" encoding="UTF-8" standalone="no"?>
<!-- Created with Inkscape (http://www.inkscape.org/) -->

<svg
   xmlns:dc="http://purl.org/dc/elements/1.1/"
   xmlns:cc="http://creativecommons.org/ns#"
   xmlns:rdf="http://www.w3.org/1999/02/22-rdf-syntax-ns#"
   xmlns:svg="http://www.w3.org/2000/svg"
   xmlns="http://www.w3.org/2000/svg"
   xmlns:sodipodi="http://sodipodi.sourceforge.net/DTD/sodipodi-0.dtd"
   xmlns:inkscape="http://www.inkscape.org/namespaces/inkscape"
   width="58.309879mm"
   height="7.2400689mm"
   viewBox="0 0 58.309879 7.2400689"
   version="1.1"
   id="svg8"
   inkscape:version="0.92.3 (2405546, 2018-03-11)"
   sodipodi:docname="Logo.svg">
  <defs
     id="defs2" />
  <sodipodi:namedview
     id="base"
     pagecolor="#000000"
     bordercolor="#666666"
     borderopacity="1.0"
     inkscape:pageopacity="0"
     inkscape:pageshadow="2"
     inkscape:zoom="11.2"
     inkscape:cx="202.20988"
     inkscape:cy="6.4341885"
     inkscape:document-units="mm"
     inkscape:current-layer="layer1"
     showgrid="false"
     objecttolerance="10000"
     guidetolerance="10000"
     inkscape:snap-perpendicular="true"
     inkscape:snap-tangential="true"
     inkscape:object-paths="false"
     inkscape:snap-intersection-paths="false"
     inkscape:snap-smooth-nodes="false"
     inkscape:snap-midpoints="false"
     inkscape:snap-bbox="true"
     inkscape:bbox-paths="false"
     inkscape:bbox-nodes="false"
     inkscape:snap-bbox-edge-midpoints="false"
     inkscape:snap-bbox-midpoints="false"
     inkscape:object-nodes="false"
     inkscape:snap-nodes="false"
     inkscape:snap-others="false"
     fit-margin-top="0"
     fit-margin-left="0"
     fit-margin-right="0"
     fit-margin-bottom="0"
     inkscape:pagecheckerboard="true"
     inkscape:window-width="1920"
     inkscape:window-height="1017"
     inkscape:window-x="-8"
     inkscape:window-y="-8"
     inkscape:window-maximized="1"
     inkscape:snap-global="true" />
  <metadata
     id="metadata5">
    <rdf:RDF>
      <cc:Work
         rdf:about="">
        <dc:format>image/svg+xml</dc:format>
        <dc:type
           rdf:resource="http://purl.org/dc/dcmitype/StillImage" />
        <dc:title></dc:title>
      </cc:Work>
    </rdf:RDF>
  </metadata>
  <g
     inkscape:label="Layer 1"
     inkscape:groupmode="layer"
     id="layer1"
     transform="translate(-57.310114,-71.415139)">
    <g
       aria-label="IMPREZP"
       style="font-style:normal;font-variant:normal;font-weight:normal;font-stretch:normal;font-size:10.58333302px;line-height:1.25;font-family:'Hemi Head';-inkscape-font-specification:'Hemi Head';letter-spacing:0px;word-spacing:0px;fill:#ffffff;fill-opacity:1;stroke:none;stroke-width:0.26458332"
       id="text941">
      <path
         d="m 57.310115,78.655212 1.513416,-7.164916 h 1.608667 l -1.513417,7.164916 z"
         style="stroke-width:0.26458332;fill:#ffffff;fill-opacity:1"
         id="path946" />
      <path
         d="m 66.21632,78.655212 0.92075,-4.349749 -2.656416,4.349749 h -1.259417 l -0.85725,-4.349749 -0.92075,4.349749 h -1.3335 l 1.513417,-7.164916 h 1.735666 l 0.931334,4.98475 3.090333,-4.98475 h 1.672167 l -1.513417,7.164916 z"
         style="stroke-width:0.26458332;fill:#ffffff;fill-opacity:1"
         id="path948" />
      <path
         d="m 70.815274,76.348046 -0.486833,2.307166 h -1.608667 l 1.11125,-5.238749 h 1.608667 l -0.34925,1.629833 h 2.211916 q 0.201084,0 0.275167,-0.08467 0.08467,-0.08467 0.137583,-0.328083 l 0.306917,-1.407583 q 0.02117,-0.105834 0.02117,-0.148167 0,-0.116417 -0.07408,-0.148167 -0.0635,-0.04233 -0.211666,-0.04233 h -3.820583 l 0.296333,-1.397 h 4.487333 q 0.53975,0 0.772583,0.1905 0.232834,0.1905 0.232834,0.592667 0,0.105833 -0.02117,0.22225 -0.01058,0.105833 -0.03175,0.243416 l -0.497417,2.360084 q -0.137583,0.634999 -0.465666,0.941916 -0.328084,0.306917 -1.016,0.306917 z"
         style="stroke-width:0.26458332;fill:#ffffff;fill-opacity:1"
         id="path950" />
      <path
         d="m 79.702793,78.655212 0.486833,-2.338916 q 0.01058,-0.05292 0.01058,-0.08467 0.01058,-0.04233 0.01058,-0.07408 0,-0.169334 -0.296333,-0.169334 h -2.31775 l -0.560917,2.667 h -1.608667 l 1.11125,-5.238749 h 1.608667 l -0.296333,1.386416 h 2.201333 q 0.232833,0 0.306917,-0.07408 0.08467,-0.07408 0.137583,-0.296333 l 0.254,-1.164167 q 0.01058,-0.05292 0.01058,-0.09525 0.01058,-0.04233 0.01058,-0.07408 0,-0.127 -0.07408,-0.169334 -0.07408,-0.04233 -0.254,-0.04233 H 76.64421 l 0.296333,-1.397 h 4.550833 q 0.550334,0 0.79375,0.201083 0.243417,0.1905 0.243417,0.592667 0,0.09525 -0.02117,0.201083 -0.01058,0.105834 -0.03175,0.22225 l -0.328083,1.55575 q -0.116417,0.550334 -0.423333,0.783167 -0.306917,0.22225 -0.677334,0.264583 0.338667,0.02117 0.5715,0.15875 0.232834,0.127 0.232834,0.465667 0,0.05292 0,0.116416 0,0.05292 -0.02117,0.116417 l -0.518583,2.487083 z"
         style="stroke-width:0.26458332;fill:#ffffff;fill-opacity:1"
         id="path952" />
      <path
         d="m 82.392117,78.655212 1.11125,-5.238749 h 1.661584 l -0.254,1.164166 h 2.63525 l -0.243417,1.143 h -2.63525 l -0.3175,1.502833 h 3.65125 l -0.296333,1.42875 z m 1.217084,-5.767916 0.296333,-1.397 h 5.312833 l -0.296333,1.397 z"
         style="stroke-width:0.26458332;fill:#ffffff;fill-opacity:1"
         id="path954" />
      <path
         d="m 88.820169,78.655212 0.275167,-1.30175 4.339167,-4.455583 h -3.323167 l 0.296333,-1.407583 h 5.259917 l -0.254,1.23825 -4.275667,4.497916 h 3.312584 l -0.296334,1.42875 z"
         style="stroke-width:0.26458332;fill:#ffffff;fill-opacity:1"
         id="path956" />
      <path
         d="m 97.356288,76.348046 -0.486833,2.307166 h -1.608667 l 1.11125,-5.238749 h 1.608667 l -0.34925,1.629833 h 2.211916 q 0.201079,0 0.275169,-0.08467 0.0847,-0.08467 0.13758,-0.328083 l 0.30692,-1.407583 q 0.0212,-0.105834 0.0212,-0.148167 0,-0.116417 -0.0741,-0.148167 -0.0635,-0.04233 -0.21167,-0.04233 h -3.820579 l 0.296334,-1.397 h 4.487335 q 0.53975,0 0.77258,0.1905 0.23283,0.1905 0.23283,0.592667 0,0.105833 -0.0212,0.22225 -0.0106,0.105833 -0.0318,0.243416 l -0.49742,2.360084 q -0.13758,0.634999 -0.46567,0.941916 -0.32808,0.306917 -1.016,0.306917 z"
         style="stroke-width:0.26458332;fill:#ffffff;fill-opacity:1"
         id="path958" />
    </g>
    <g
       aria-label="L"
       transform="matrix(0.26458333,0,0,0.26458333,-6.8602618,-7.6540179)"
       style="font-style:normal;font-variant:normal;font-weight:normal;font-stretch:normal;font-size:40px;line-height:1.25;font-family:'Hemi Head';-inkscape-font-specification:'Hemi Head';letter-spacing:0px;word-spacing:0px;fill:#ffffff;fill-opacity:1;stroke:none"
       id="flowRoot827">
      <path
         d="m 461.7575,325.92406 h -18.16 l 5.72,-27.08 h 6.08 l -4.56,21.6 h 12.08 z"
         style="fill:#ffffff;fill-opacity:1"
         id="path943" />
    </g>
    <path
       style="opacity:1;fill:#ec0000;fill-opacity:0.97989951;stroke-width:0.27946642"
       d="m 106.6523,71.017068 a 3.9923772,3.9923772 0 0 0 -3.99204,3.992625 3.9923772,3.9923772 0 0 0 3.99204,3.992049 3.9923772,3.9923772 0 0 0 3.99263,-3.992049 3.9923772,3.9923772 0 0 0 -3.99263,-3.992625 z m 0,0.343589 a 3.6487839,3.6487839 0 0 1 3.64905,3.649036 3.6487839,3.6487839 0 0 1 -3.64905,3.648462 3.6487839,3.6487839 0 0 1 -3.64846,-3.648462 3.6487839,3.6487839 0 0 1 3.64846,-3.649036 z"
       id="path843"
       inkscape:connector-curvature="0" />
    <rect
       style="opacity:1;fill:#ec0001;fill-opacity:0.97989951;stroke-width:0.29417518"
       id="rect894"
       width="0.59097689"
       height="1.759798"
       x="106.35709"
       y="71.017067" />
    <rect
       style="opacity:1;fill:#ec0001;fill-opacity:0.97989951;stroke-width:0.29417518"
       id="rect894-9"
       width="0.59097689"
       height="1.759798"
       x="106.35709"
       y="77.241951" />
    <rect
       style="opacity:1;fill:#ec0001;fill-opacity:0.97989951;stroke-width:0.29417518"
       id="rect894-3"
       width="0.59097689"
       height="1.759798"
       x="74.713921"
       y="-110.64492"
       transform="rotate(90)" />
    <rect
       style="opacity:1;fill:#ec0001;fill-opacity:0.97989951;stroke-width:0.29417518"
       id="rect894-9-2"
       width="0.59097689"
       height="1.759798"
       x="74.713921"
       y="-104.42004"
       transform="rotate(90)" />
    <circle
       style="opacity:1;fill:#ec0001;fill-opacity:0.97989951;stroke-width:0.29417518"
       id="path935"
       cx="106.6526"
       cy="75.009407"
       r="0.28892204" />
    <path
       style="opacity:1;fill:#ec0000;fill-opacity:0.97989951;stroke-width:0.25947148"
       d="m 106.65232,71.302709 a 3.7067354,3.7067354 0 0 0 -3.70642,3.706964 3.7067354,3.7067354 0 0 0 3.70642,3.706431 3.7067354,3.7067354 0 0 0 3.70697,-3.706431 3.7067354,3.7067354 0 0 0 -3.70697,-3.706964 z m 0,0.319004 a 3.387725,3.387725 0 0 1 3.38798,3.38796 3.387725,3.387725 0 0 1 -3.38798,3.387425 3.387725,3.387725 0 0 1 -3.38742,-3.387425 3.387725,3.387725 0 0 1 3.38742,-3.38796 z"
       id="path843-4"
       inkscape:connector-curvature="0" />
    <path
       style="opacity:1;fill:#ec0000;fill-opacity:0.97989951;stroke-width:0.24517041"
       d="m 106.65235,71.507007 a 3.5024346,3.5024346 0 0 0 -3.50215,3.502652 3.5024346,3.5024346 0 0 0 3.50215,3.502146 3.5024346,3.5024346 0 0 0 3.50263,-3.502146 3.5024346,3.5024346 0 0 0 -3.50263,-3.502652 z m 0,0.301423 a 3.2010066,3.2010066 0 0 1 3.20123,3.201229 3.2010066,3.2010066 0 0 1 -3.20123,3.200722 3.2010066,3.2010066 0 0 1 -3.20072,-3.200722 3.2010066,3.2010066 0 0 1 3.20072,-3.201229 z"
       id="path843-4-8"
       inkscape:connector-curvature="0" />
    <path
       style="opacity:1;fill:#ec0000;fill-opacity:0.97989951;stroke-width:0.23086935"
       d="m 106.65237,71.711304 a 3.2981339,3.2981339 0 0 0 -3.29788,3.298337 3.2981339,3.2981339 0 0 0 3.29788,3.297861 3.2981339,3.2981339 0 0 0 3.29831,-3.297861 3.2981339,3.2981339 0 0 0 -3.29831,-3.298337 z m 0,0.283838 a 3.0142883,3.0142883 0 0 1 3.01451,3.014499 3.0142883,3.0142883 0 0 1 -3.01451,3.014021 3.0142883,3.0142883 0 0 1 -3.01402,-3.014021 3.0142883,3.0142883 0 0 1 3.01402,-3.014499 z"
       id="path843-4-8-1"
       inkscape:connector-curvature="0" />
    <path
       style="opacity:1;fill:#ec0000;fill-opacity:0.97989951;stroke-width:0.21916847"
       d="m 106.65237,71.878457 a 3.1309783,3.1309783 0 0 0 -3.13073,3.131172 3.1309783,3.1309783 0 0 0 3.13073,3.13072 3.1309783,3.1309783 0 0 0 3.13115,-3.13072 3.1309783,3.1309783 0 0 0 -3.13115,-3.131172 z m 0,0.269454 a 2.8615186,2.8615186 0 0 1 2.86173,2.861718 2.8615186,2.8615186 0 0 1 -2.86173,2.861266 2.8615186,2.8615186 0 0 1 -2.86126,-2.861266 2.8615186,2.8615186 0 0 1 2.86126,-2.861718 z"
       id="path843-4-8-3"
       inkscape:connector-curvature="0" />
  </g>
</svg>
